# xmcd CD database file
#
# Track frame offsets:
#	150
#	12941
#	27228
#	37375
#	50165
#	61498
#	72497
#	83317
#	97946
#	107645
#	117307
#	127498
#	141994
#	154683
#	168537
#	181575
#	190968
#	200770
#	210223
#	221725
#	234504
#	248681
#	263876
#	275164
#	284140
#
# Disc length: 3989 seconds
#
# Revision: 0
# Processed by: cddbd v1.5.2PL0 Copyright (c) Steve Scherf et al.
# Submitted via: CDex 1.70beta2
#
DISCID=840f9319
DTITLE=Nat King Cole Trio - Radio Sessions From The Early Years- 1938 - 1939 - Disc 1
DYEAR=1900
DGENRE=Jazz
TTITLE0=Mutiny In The Nursery
TTITLE1=F.D.R Jones
TTITLE2=The Sheik Of Araby
TTITLE3=The Blue Danube
TTITLE4=Jingle Bells
TTITLE5=Swannee River
TTITLE6=Don't Blame Me
TTITLE7=Dark Rapture
TTITLE8=Blue Skies
TTITLE9=Three Blind Mice
TTITLE10=Caravan
TTITLE11=There's No Anesthetic
TTITLE12=The Land Of Make Believe
TTITLE13=Dancing In The Street
TTITLE14='Tain't What You Do (It's The Way That'Cha Do It)
TTITLE15=Riffin' In F Minor
TTITLE16=Honey
TTITLE17=Russian Lullaby
TTITLE18=Snug As A Bug In A Rug
TTITLE19=The Limp
TTITLE20=Some Like It Hot
TTITLE21=Liebestraum
TTITLE22=I Like To Riff
TTITLE23=Crazy Rhythm
TTITLE24=Sweet Lorraine
EXTD=
EXTT0=
EXTT1=
EXTT2=
EXTT3=
EXTT4=
EXTT5=
EXTT6=
EXTT7=
EXTT8=
EXTT9=
EXTT10=
EXTT11=
EXTT12=
EXTT13=
EXTT14=
EXTT15=
EXTT16=
EXTT17=
EXTT18=
EXTT19=
EXTT20=
EXTT21=
EXTT22=
EXTT23=
EXTT24=
PLAYORDER=
